<svg version="1.0" xmlns="http://www.w3.org/2000/svg"
 width="3600.000000pt" height="3600.000000pt" viewBox="0 0 3600.000000 3600.000000"
 preserveAspectRatio="xMidYMid meet">
<metadata>
Created by potrace 1.11, written by Peter Selinger 2001-2013
</metadata>
<g transform="translate(0.000000,3600.000000) scale(0.100000,-0.100000)"
fill="#000000" stroke="none">
<path d="M5580 18000 l0 -12420 12420 0 12420 0 0 1365 0 1365 -37 1 c-21 0
-4996 0 -11055 1 l-11016 0 0 11052 0 11051 -1366 3 -1366 2 0 -12420z"/>
<path d="M28433 25870 c-123 -31 -223 -56 -223 -53 0 2 -8 -1 -18 -6 -11 -6
-30 -12 -43 -15 -30 -5 -308 -75 -444 -110 -55 -15 -109 -28 -120 -30 -11 -2
-27 -7 -35 -10 -8 -3 -26 -8 -40 -10 -14 -3 -52 -12 -85 -21 -33 -8 -71 -18
-85 -21 -14 -3 -59 -14 -100 -25 -88 -24 -107 -28 -140 -35 -14 -3 -48 -12
-76 -20 -28 -8 -61 -17 -73 -19 -40 -9 -56 -13 -141 -35 -84 -22 -100 -26
-141 -35 -11 -2 -29 -7 -39 -10 -10 -3 -28 -8 -40 -10 -11 -2 -54 -13 -94 -24
-40 -11 -83 -22 -97 -25 -13 -3 -112 -27 -219 -55 -329 -84 -1514 -383 -1530
-386 -8 -2 -35 -9 -60 -15 -25 -7 -61 -16 -80 -20 -19 -5 -188 -47 -375 -95
-187 -47 -469 -118 -626 -158 l-285 -71 170 -131 c94 -72 218 -167 276 -211
58 -44 168 -129 245 -188 77 -60 151 -117 165 -127 221 -169 540 -414 555
-427 11 -10 36 -28 55 -42 19 -13 85 -63 145 -110 61 -46 115 -88 120 -92 6
-4 28 -23 51 -40 23 -18 59 -46 82 -63 l40 -30 -46 -55 c-26 -30 -51 -60 -57
-67 -5 -6 -20 -24 -32 -40 -12 -15 -31 -39 -43 -53 -12 -14 -39 -45 -59 -70
-20 -25 -40 -50 -46 -56 -5 -6 -28 -33 -50 -60 -22 -26 -48 -56 -57 -66 -10
-10 -18 -22 -18 -27 0 -5 -3 -11 -8 -13 -4 -1 -30 -30 -57 -63 -28 -33 -54
-65 -60 -71 -5 -6 -23 -28 -40 -49 -16 -21 -35 -43 -40 -49 -6 -6 -40 -47 -75
-91 -36 -43 -72 -86 -80 -95 -8 -9 -31 -36 -50 -60 -19 -24 -42 -51 -50 -59
-8 -9 -31 -37 -50 -61 -19 -25 -37 -47 -40 -50 -5 -4 -87 -103 -170 -203 -8
-10 -22 -27 -30 -37 -8 -9 -33 -39 -55 -66 -134 -162 -190 -230 -195 -234 -3
-3 -33 -39 -66 -80 -32 -41 -66 -82 -74 -90 -8 -9 -31 -37 -51 -61 -54 -65
-305 -368 -343 -414 -90 -107 -105 -125 -120 -140 -9 -9 -16 -19 -16 -23 0 -4
-15 -23 -33 -42 -17 -19 -49 -56 -70 -82 -21 -26 -43 -53 -50 -60 -7 -7 -32
-38 -57 -68 -25 -30 -49 -60 -55 -67 -5 -7 -15 -18 -20 -25 -12 -15 -149 -180
-181 -218 -34 -40 -136 -163 -174 -210 -19 -24 -40 -48 -45 -54 -6 -6 -30 -36
-55 -66 -25 -30 -47 -57 -50 -60 -3 -3 -25 -30 -50 -60 -25 -30 -55 -66 -66
-80 -12 -14 -92 -110 -179 -215 -86 -104 -167 -201 -179 -215 -11 -14 -52 -63
-91 -110 -38 -47 -79 -96 -91 -110 -22 -25 -262 -315 -383 -463 -36 -43 -67
-74 -70 -70 -3 4 -33 28 -66 53 -33 25 -62 48 -65 51 -3 3 -50 41 -105 84 -55
44 -105 84 -111 90 -7 5 -24 19 -39 30 -32 23 -191 150 -249 198 -21 17 -46
36 -55 41 -9 5 -21 14 -27 20 -18 18 -126 105 -194 156 -18 14 -38 30 -44 36
-6 5 -42 34 -81 64 -38 29 -72 56 -75 60 -3 3 -25 21 -50 40 -25 19 -52 40
-60 47 -114 91 -395 314 -420 333 -18 14 -38 30 -44 35 -6 6 -38 31 -71 57
-33 25 -71 55 -85 67 -14 11 -29 24 -35 29 -35 28 -371 293 -418 331 -33 25
-76 60 -96 76 -20 17 -54 44 -76 60 -77 60 -150 119 -155 125 -3 3 -26 21 -52
40 -27 18 -48 36 -48 40 0 3 -12 13 -27 22 -16 9 -39 26 -53 38 -14 12 -38 31
-53 43 -15 12 -38 30 -50 41 -12 10 -38 30 -57 45 -19 14 -44 34 -55 43 -17
14 -93 74 -234 186 -19 15 -53 42 -75 60 -23 17 -45 36 -51 40 -76 59 -101 78
-105 82 -4 5 -56 46 -155 125 -16 13 -77 61 -135 106 -58 46 -107 85 -110 88
-3 4 -32 26 -65 51 -32 25 -67 52 -75 60 -9 8 -52 42 -95 75 -43 33 -89 70
-101 83 -13 12 -26 22 -28 22 -3 0 -50 36 -103 79 l-97 79 -37 -41 c-20 -23
-78 -91 -129 -152 -51 -60 -117 -137 -146 -170 -44 -50 -373 -435 -535 -625
-26 -30 -138 -161 -249 -290 -111 -129 -263 -307 -338 -395 -75 -88 -139 -162
-142 -165 -3 -3 -58 -66 -120 -140 -63 -74 -127 -148 -141 -165 -23 -25 -153
-177 -398 -464 -25 -30 -50 -59 -56 -65 -5 -6 -41 -47 -78 -91 -99 -115 -134
-156 -245 -285 -54 -63 -107 -126 -118 -139 -10 -13 -24 -28 -29 -35 -21 -23
-158 -183 -198 -230 -23 -27 -49 -56 -57 -65 -8 -9 -51 -59 -95 -111 -44 -52
-84 -100 -90 -106 -5 -6 -32 -37 -60 -70 -27 -32 -68 -79 -90 -105 -22 -25
-60 -70 -85 -99 -25 -29 -49 -58 -55 -64 -5 -6 -37 -43 -70 -81 -33 -39 -62
-72 -65 -75 -6 -6 -97 -115 -120 -144 -8 -10 -22 -26 -31 -35 -9 -9 -87 -99
-174 -201 -86 -102 -179 -210 -205 -240 -26 -30 -134 -156 -240 -280 -106
-124 -202 -236 -214 -250 -11 -14 -77 -90 -145 -170 -69 -80 -132 -153 -140
-162 -9 -9 -21 -23 -26 -30 -14 -18 -255 -299 -317 -370 -27 -31 -59 -69 -70
-84 -12 -15 -31 -36 -42 -48 -12 -12 -32 -35 -45 -52 -14 -16 -65 -76 -115
-134 -50 -58 -94 -109 -99 -115 -4 -5 -17 -21 -30 -36 -12 -14 -44 -51 -72
-84 -27 -32 -54 -63 -60 -69 -5 -6 -35 -40 -65 -76 -30 -36 -67 -78 -81 -95
-41 -47 -160 -186 -204 -239 -22 -27 -49 -58 -60 -71 -46 -50 -83 -93 -130
-150 -28 -33 -54 -63 -60 -67 -7 -5 -7 -8 0 -8 6 0 26 -15 45 -33 19 -17 62
-54 95 -82 33 -27 62 -52 65 -55 3 -3 50 -43 105 -90 55 -47 116 -99 135 -116
39 -35 169 -146 250 -214 30 -25 77 -65 105 -90 27 -24 58 -51 69 -60 10 -8
23 -20 30 -25 6 -6 40 -35 76 -65 36 -30 67 -57 70 -60 3 -3 68 -60 145 -125
77 -66 145 -124 151 -130 50 -46 247 -210 254 -210 4 0 63 65 130 145 68 80
126 147 129 150 4 3 29 32 56 65 28 33 52 62 55 65 9 8 115 133 136 159 10 13
28 33 39 45 11 12 56 64 100 116 44 52 92 109 107 125 41 46 63 72 100 117 18
23 51 61 73 86 22 25 48 54 58 66 10 12 37 43 60 70 58 68 68 79 103 123 18
21 42 49 55 63 13 14 47 52 74 85 28 33 60 71 72 85 40 46 58 67 103 121 25
29 63 74 85 99 23 25 65 74 95 110 30 36 61 72 70 81 8 9 33 38 55 64 22 27
45 53 50 59 6 6 33 38 60 71 28 33 55 65 61 70 6 6 46 53 90 105 68 81 96 114
159 184 6 6 26 31 46 56 20 25 45 55 55 66 11 12 42 47 69 79 28 32 55 63 60
69 6 6 32 38 60 71 27 33 52 62 55 65 3 3 32 37 65 75 33 39 62 72 65 75 3 3
16 18 28 34 12 15 41 50 64 76 24 26 54 60 67 76 13 16 49 58 80 94 31 36 66
76 77 90 12 14 174 203 361 420 186 217 348 406 360 420 11 14 38 45 59 71 63
73 138 161 149 173 6 6 102 119 215 251 113 132 209 245 215 251 5 6 30 35 55
64 40 48 193 226 261 305 28 32 400 468 405 474 2 2 54 -37 116 -85 62 -49
118 -92 123 -97 6 -4 22 -17 36 -30 14 -12 40 -33 59 -47 32 -24 276 -217 302
-239 7 -6 42 -34 78 -62 36 -28 67 -55 68 -60 2 -5 8 -9 13 -9 7 0 94 -67 184
-142 11 -10 38 -31 60 -47 22 -17 47 -37 55 -44 8 -7 33 -27 55 -43 22 -16 42
-31 45 -35 4 -4 67 -55 235 -186 6 -5 49 -40 97 -78 47 -39 121 -97 164 -130
42 -33 85 -68 95 -77 11 -10 23 -18 28 -18 5 0 11 -3 13 -7 2 -7 34 -33 138
-116 8 -7 35 -28 60 -47 65 -50 67 -52 101 -82 17 -16 34 -28 38 -28 4 0 18
-10 31 -22 20 -19 66 -57 155 -126 19 -14 130 -103 149 -119 11 -9 40 -31 65
-51 25 -19 48 -37 51 -41 3 -4 21 -18 40 -31 19 -13 37 -27 40 -30 3 -3 39
-33 80 -65 41 -33 82 -65 90 -72 16 -13 309 -245 369 -292 19 -14 39 -31 45
-36 6 -6 43 -35 81 -65 39 -30 75 -59 82 -65 7 -5 18 -15 25 -20 7 -6 56 -44
108 -84 52 -41 100 -80 106 -88 6 -7 14 -13 17 -13 6 0 30 -18 61 -45 6 -6 31
-26 56 -45 25 -19 50 -39 56 -45 6 -5 26 -21 44 -35 18 -14 43 -33 54 -42 12
-10 48 -39 81 -65 33 -26 62 -50 65 -53 3 -3 21 -17 40 -30 19 -13 37 -27 40
-30 3 -4 61 -51 130 -105 69 -55 131 -105 139 -113 16 -16 16 -16 126 118 38
47 79 96 92 110 12 14 70 84 129 155 59 72 110 132 113 135 4 3 24 28 46 55
41 51 72 89 90 109 6 6 30 36 55 66 25 30 47 57 50 60 3 3 59 70 125 150 66
80 128 154 137 165 9 11 45 54 79 95 34 41 65 77 68 80 3 3 33 39 66 80 33 41
65 80 70 86 14 15 64 75 221 264 75 91 146 176 158 190 11 14 41 50 66 80 25
30 47 57 50 60 3 3 37 43 75 90 38 47 72 87 75 90 3 3 35 40 70 84 36 43 76
90 89 105 13 14 35 42 50 61 14 19 29 37 32 40 4 3 28 32 55 66 27 33 69 85
94 114 25 29 61 72 80 95 19 23 54 64 76 91 23 27 101 121 174 209 73 88 142
171 154 185 11 14 50 61 86 105 36 44 68 82 71 85 3 3 54 64 113 135 59 72
117 141 129 155 13 14 41 47 62 75 22 27 47 56 55 65 8 9 31 36 50 60 19 24
51 62 70 85 48 57 108 128 171 205 29 36 58 70 64 76 5 6 26 31 46 55 137 166
405 488 423 509 12 14 64 77 116 140 52 63 99 120 105 126 5 6 26 30 45 54 19
24 40 48 45 54 6 6 30 36 55 66 25 30 55 66 66 80 12 14 68 81 125 150 57 69
106 127 109 130 3 3 37 43 75 90 38 47 72 87 75 90 3 3 50 59 104 125 54 66
107 131 119 145 12 14 44 52 71 85 28 33 53 62 56 65 3 3 20 24 39 48 18 23
37 42 42 42 5 0 35 -20 67 -45 88 -69 391 -305 452 -352 30 -23 65 -51 77 -62
12 -12 25 -21 28 -21 3 0 43 -30 89 -67 46 -38 96 -77 112 -88 15 -11 73 -56
128 -100 56 -44 131 -102 167 -130 87 -66 333 -258 339 -265 3 -3 32 -25 65
-50 33 -24 66 -50 75 -57 8 -7 71 -56 140 -109 69 -53 131 -101 138 -107 9 -7
12 552 12 2792 0 2235 -3 2801 -12 2800 -7 0 -113 -27 -235 -59z"/>
</g>
</svg>
